<?xml version="1.0" encoding="UTF-8"?>
<svg id="Layer_1"
     xmlns="http://www.w3.org/2000/svg"
     version="1.1"
     viewBox="0 0 618.86 249.18"
     fill="#fff5e6">
  <!-- Generator: Adobe Illustrator 30.1.0, SVG Export Plug-In . SVG Version: 2.1.1 Build 136)  -->
  <g>
    <path d="M403.29,65.84c13.11.09,25.15-7.1,29.24-19.33,4.61-13.77-4.57-29.19-20.02-27.24-13.96,2.14-28.57,15.78-28.84,30.59-.11,10.48,9.65,16.01,19.39,15.98h.23Z"/>
    <path d="M610.73,103.1c-5.94-.38-11.02,5.34-15.61,8.84-10.96,9.23-23.82,18.42-36.59,23.01-2.53.91-11.94,3.65-11.36-1.38,1.09-3.38,5.28-6.42,8.71-9.5,36.73-32.34-2.86-57.52-38.15-52.99-15.89,1.39-31.9,11.93-44.48,25.36-5.27,5.39-11.05,9.35-17.01,13.6-6.63,4.47-15.31,15.04-23.94,10.49-8.11-6.06-.7-25.94-12.12-38.96-8.68-11.25-31.85-11.59-40.21.13-5.37,8.7-8,20.52-14.91,28.88-5.34,6.84-16.49,17.69-25.25,10.91-5.73-6.14.2-16.26,3.64-22.48,10.33-18,18.15-28.07,22.58-47.35,6.37-24.61-3-47.97-30.66-45.17-31.37,1.19-38.15,52.09-47.88,84.15-3.43,11-11.2,18.97-20.28,25.96-5.21,3.79-13.18,11.64-19.59,6.57-2.71-2.35-3.42-8.55-3.56-13.38-.42-7.45.31-15.59-3.56-22.19-5.08-7.68-17.09-.36-23.88,2.52-6.49,2.95-12.62,1.23-18.8-1.74-16.02-8.54-34.94-12.41-52.22-5.79-14.58,5.08-26.27,17.82-35.91,29.97-3.42,3.83-7.1,7.34-11.59,9.48-7.72,4.02-16.11.09-14.29-9.33,1.16-6.58,5.08-12.57,8.04-18.32,2.54-4.73,4.9-9.16,7.07-13.5,8.84-18.09,19.59-44.57,12.41-64.43C105.5-.22,83.32-3.75,69.38,3.74c-18.75,8.49-26.98,46.21-33.48,72.52-3.34,16.92-5.79,27.51-19.79,38.71-4.92,4.32-10.9,9.09-13.97,14.71-4.38,7.26-2.16,21.35,7.75,22.23,5.2.28,10.59-4.55,14.95-5.01,8.11-.33,8.48,11.21,11.22,17.07,4.18,11.71,13.9,18.42,26.19,14.9,9.25-2.29,20.45-8.18,31.15-15.7,2.94-2.05,7.16-5.24,10.6-4.64,3.27.45,5.6,4.3,7.8,6.87,1.4,1.67,2.95,3.23,4.62,4.65,13.73,11.83,34.02,12.09,50.19,5.37,8.78-2.95,17.71-9.62,26.91-10.58,7.19-.13,10.52,7.5,16.11,10.94,14.07,9.21,26.48.84,42.5-10.1,6.78-4.81,13.86-11,20.13-15.81,4.93-3.82,10.8-4.41,13.54,2.36,3.38,8.76,5.46,20.48,14.7,25.34,15.15,8.02,38.65-9,51.3-17.54,12.89-8.68,30.31-25.26,34.91.68,1.74,12.86,7.12,19.85,20.54,16.05,13.5-3.08,30.69-15.75,44.4-25.73,8.78-5.48,13.67,2.77,18.52,9.03,12.24,15.65,36.02,20,55.76,17.41,35.6-2.99,56.22-16.15,79.6-40.89,5.8-6.85,15.26-17.3,12.97-26.58-1.08-3.55-4.23-6.57-7.62-6.89l-.16-.02ZM73.77,59.37c-6.39-3,2.45-17.62,7.87-17.78,2.32-.02,3.04,2.59,2.9,4.6-.39,5.38-5.5,13.57-10.63,13.22l-.14-.04ZM187.07,115.37c-.65,9.24-15.96,15.7-24.15,16.66-8.78,1.22-13.5-4.78-6.85-11.65,4.4-4.53,12.24-7.92,18.77-9.48,4.33-1.16,11.73-1.55,12.23,4.3v.17ZM327.07,65.57c-6.39-3,2.45-17.62,7.87-17.78,2.32-.02,3.04,2.59,2.9,4.6-.39,5.38-5.5,13.57-10.63,13.22l-.14-.04ZM529.97,101.86c-.73,6.71-13.63,11.93-20.08,10.47-2.48-.48-4.98-2.34-4.37-5.05,1.42-7.13,22.13-14.4,24.44-5.57v.15Z"/>
  </g>
  <g>
    <path d="M117.72,249.18c-2.23,0-4.29-.37-6.18-1.12-1.89-.75-3.53-1.8-4.91-3.16-1.38-1.36-2.46-2.95-3.24-4.79s-1.16-3.84-1.16-6.01.39-4.18,1.16-6.02c.78-1.84,1.86-3.43,3.26-4.79,1.4-1.36,3.04-2.41,4.93-3.16,1.89-.75,3.95-1.12,6.18-1.12s4.16.36,6.06,1.08c1.89.72,3.49,1.8,4.79,3.24l-1.99,1.99c-1.21-1.24-2.55-2.14-4.02-2.69-1.47-.55-3.05-.83-4.74-.83-1.78,0-3.43.31-4.96.91-1.52.61-2.85,1.47-3.98,2.58-1.13,1.11-2.01,2.41-2.65,3.9-.64,1.48-.95,3.11-.95,4.89s.32,3.41.95,4.89c.63,1.48,1.52,2.78,2.65,3.9,1.13,1.11,2.46,1.98,3.98,2.58,1.52.61,3.18.91,4.96.91s3.28-.28,4.74-.85c1.47-.57,2.81-1.47,4.02-2.71l1.99,1.99c-1.3,1.44-2.9,2.53-4.79,3.26-1.89.73-3.93,1.1-6.1,1.1Z"/>
    <path d="M139.53,248.93v-29.65h11.1c2.51,0,4.67.4,6.48,1.21,1.81.81,3.2,1.96,4.17,3.47.98,1.51,1.46,3.34,1.46,5.49s-.49,3.89-1.46,5.4-2.37,2.67-4.17,3.47c-1.81.81-3.97,1.21-6.48,1.21h-9.36l1.4-1.44v10.84h-3.13ZM142.67,238.34l-1.4-1.48h9.28c2.96,0,5.22-.65,6.76-1.95,1.54-1.3,2.31-3.12,2.31-5.46s-.77-4.21-2.31-5.51c-1.54-1.3-3.79-1.95-6.76-1.95h-9.28l1.4-1.48v17.83ZM159.78,248.93l-7.62-10.76h3.39l7.67,10.76h-3.43Z"/>
    <path d="M177.53,246.22h17.83v2.71h-20.97v-29.65h20.33v2.71h-17.2v24.23ZM177.19,232.54h15.67v2.67h-15.67v-2.67Z"/>
    <path d="M202.22,248.93l13.55-29.65h3.09l13.55,29.65h-3.3l-12.45-27.83h1.27l-12.45,27.83h-3.26ZM207.56,241.01l.93-2.54h17.24l.93,2.54h-19.1Z"/>
    <path d="M263.76,248.93v-29.65h3.14v26.94h16.6v2.71h-19.74Z"/>
    <path d="M288.21,248.93l13.55-29.65h3.09l13.55,29.65h-3.3l-12.45-27.83h1.27l-12.45,27.83h-3.26ZM293.54,241.01l.93-2.54h17.24l.93,2.54h-19.1Z"/>
    <path d="M327.55,248.93v-29.65h3.14v26.94h16.6v2.71h-19.74Z"/>
    <path d="M356.74,248.93v-29.65h3.14v29.65h-3.14Z"/>
    <path d="M376.9,246.22h17.83v2.71h-20.97v-29.65h20.33v2.71h-17.2v24.23ZM376.56,232.54h15.67v2.67h-15.67v-2.67Z"/>
    <path d="M423.79,248.93l13.55-29.65h3.09l13.55,29.65h-3.3l-12.45-27.83h1.27l-12.45,27.83h-3.26ZM429.13,241.01l.93-2.54h17.24l.93,2.54h-19.1Z"/>
    <path d="M463.14,248.93v-29.65h11.1c2.51,0,4.67.4,6.48,1.21,1.81.81,3.2,1.96,4.17,3.47.97,1.51,1.46,3.34,1.46,5.49s-.49,3.89-1.46,5.4c-.98,1.51-2.37,2.67-4.17,3.47-1.81.81-3.97,1.21-6.48,1.21h-9.36l1.4-1.44v10.84h-3.14ZM466.27,238.34l-1.4-1.48h9.28c2.97,0,5.22-.65,6.76-1.95,1.54-1.3,2.31-3.12,2.31-5.46s-.77-4.21-2.31-5.51c-1.54-1.3-3.79-1.95-6.76-1.95h-9.28l1.4-1.48v17.83ZM483.38,248.93l-7.62-10.76h3.39l7.67,10.76h-3.43Z"/>
    <path d="M503.33,248.93v-26.94h-10.42v-2.71h23.97v2.71h-10.42v26.94h-3.13Z"/>
  </g>
</svg>